<svg id="Layer_1" data-name="Layer 1" xmlns="http://www.w3.org/2000/svg" xmlns:xlink="http://www.w3.org/1999/xlink" viewBox="0 0 406.49 73"><defs><style>.cls-1{fill:#fff;stroke:url(#linear-gradient);}.cls-1,.cls-2,.cls-3,.cls-4,.cls-5{stroke-miterlimit:10;}.cls-2,.cls-3,.cls-4,.cls-5{fill:none;}.cls-2{stroke:url(#linear-gradient-2);}.cls-3{stroke:url(#linear-gradient-3);}.cls-4{stroke:url(#linear-gradient-4);}.cls-5{stroke:url(#linear-gradient-5);}.cls-6{fill:#f77f00;}.cls-7{font-size:64px;font-family:PoiretOne-Regular, Poiret One;}.cls-8{letter-spacing:-0.02em;}.cls-9{letter-spacing:0.01em;}</style><linearGradient id="linear-gradient" x1="54.75" y1="30.92" x2="18.25" y2="-5.58" gradientUnits="userSpaceOnUse"><stop offset="0" stop-color="#fcbf49"/><stop offset="0.04" stop-color="#fbb43d"/><stop offset="0.15" stop-color="#f99d22"/><stop offset="0.26" stop-color="#f88c0f"/><stop offset="0.38" stop-color="#f78204"/><stop offset="0.5" stop-color="#f77f00"/><stop offset="1" stop-color="#d62828"/></linearGradient><linearGradient id="linear-gradient-2" x1="75.34" y1="75.86" x2="5.07" y2="5.6" xlink:href="#linear-gradient"/><linearGradient id="linear-gradient-3" x1="8.59" y1="9.2" x2="4.51" y2="5.12" xlink:href="#linear-gradient"/><linearGradient id="linear-gradient-4" x1="15.56" y1="9.2" x2="11.47" y2="5.12" xlink:href="#linear-gradient"/><linearGradient id="linear-gradient-5" x1="22.68" y1="9.2" x2="18.59" y2="5.12" xlink:href="#linear-gradient"/></defs><line class="cls-1" x1="72.5" y1="12.67" x2="0.5" y2="12.67"/><path class="cls-2" d="M72,76.73H8.37A4.17,4.17,0,0,1,4.2,72.56V8.9A4.17,4.17,0,0,1,8.37,4.73H72A4.17,4.17,0,0,1,76.2,8.9V72.56A4.17,4.17,0,0,1,72,76.73Z" transform="translate(-3.7 -4.23)"/><circle class="cls-3" cx="6.55" cy="7.16" r="2.39"/><circle class="cls-4" cx="13.52" cy="7.16" r="2.39"/><circle class="cls-5" cx="20.64" cy="7.16" r="2.39"/><path class="cls-6" d="M31.33,51.36l-11.69-4.5V44l11.69-4.5v2.93l-8.79,2.88v.21l8.79,2.89Z" transform="translate(-3.7 -4.23)"/><path class="cls-6" d="M33.91,56l9.21-21.09h2.93L36.83,56Z" transform="translate(-3.7 -4.23)"/><path class="cls-6" d="M48.35,51.36V48.43l8.55-2.89v-.21l-8.55-2.88V39.52L60,44v2.84Z" transform="translate(-3.7 -4.23)"/><text class="cls-7" transform="translate(90.08 56.84)"><tspan class="cls-8">C</tspan><tspan x="43.71" y="0">odeSpa</tspan><tspan class="cls-9" x="253.18" y="0">c</tspan><tspan x="284.48" y="0">e</tspan></text></svg>