<svg xmlns="http://www.w3.org/2000/svg" width="24" height="24">
    <g>
        <g stroke="null" id="svg_8">
            <polygon stroke="null" id="svg_1" fill="#e24329" points="11.992454220176,23.970645904541016 11.992454220176,23.970645904541016 16.399611392836277,9.274901390075684 7.585293693473261,9.274901390075684 11.992454220176,23.970645904541016 "/>
            <polygon stroke="null" id="svg_2" fill="#fc6d26" points="11.992454220176,23.970645904541016 7.585293693473261,9.274901390075684 1.4096295888803212,9.274901390075684 11.992454220176,23.970645904541016 "/>
            <path stroke="null" id="svg_3" fill="#fca326" d="m1.40963,9.2749l0,0l-1.33941,4.46605a0.91203,0.98824 0 0 0 0.33165,1.10494l11.59059,9.12846l-10.58282,-14.69945z"/>
            <path stroke="null" id="svg_4" fill="#e24329" d="m1.40963,9.2749l6.17566,0l-2.65404,-8.8506a0.45644,0.49458 0 0 0 -0.86758,0l-2.65404,8.8506z"/>
            <polygon stroke="null" id="svg_5" fill="#fc6d26" points="11.992454220176,23.970645904541016 16.399611392836277,9.274901390075684 22.575275617216448,9.274901390075684 11.992454220176,23.970645904541016 "/>
            <path stroke="null" id="svg_6" fill="#fca326" d="m22.57528,9.2749l0,0l1.33941,4.46605a0.91203,0.98824 0 0 1 -0.33165,1.10494l-11.59059,9.12846l10.58282,-14.69945z"/>
            <path stroke="null" id="svg_7" fill="#e24329" d="m22.57528,9.2749l-6.17566,0l2.65404,-8.85153a0.45644,0.49458 0 0 1 0.86758,0l2.65404,8.85153z"/>
        </g>
    </g>
</svg>
